<svg width="146" height="146" viewBox="0 0 146 146" fill="none" xmlns="http://www.w3.org/2000/svg">
<path fill-rule="evenodd" clip-rule="evenodd" d="M146 73C146 113.316 113.316 146 73 146C32.6836 146 0 113.316 0 73C0 32.6836 32.6836 0 73 0C99.1884 0 122.156 13.7906 135.037 34.5059C134.297 38.4539 132.128 42.3636 127.5 46C124.314 49.1856 117.074 53.3849 111.363 55.8777C104.809 41.2164 90.098 31 73 31C49.8037 31 31 49.8037 31 73C31 96.1963 49.8037 115 73 115C96.1963 115 115 96.1963 115 73C115 70.732 114.82 68.506 114.474 66.3355C125.859 58.9461 135.138 50.8014 140.042 44.0684C143.876 52.9395 146 62.7217 146 73Z" fill="white"/>
<path d="M0 73C0 32.6836 32.6836 0 73 0C99.1884 0 122.156 13.7906 135.037 34.5059C134.297 38.4539 132.128 42.3636 127.5 46C124.314 49.1856 117.074 53.3849 111.363 55.8777C104.809 41.2164 90.098 31 73 31C49.8037 31 31 49.8037 31 73C31 79.6391 32.5404 85.9184 35.2833 91.5L36.5 93.7935C25.5 92.5 13.9469 102.408 9.71319 109.408L9 108.142C3.26347 97.7171 0 85.7396 0 73Z" fill="#DE9720"/>
</svg>
